<svg width="120" height="124" viewBox="0 0 120 124" fill="none" xmlns="http://www.w3.org/2000/svg">
<g clip-path="url(#clip0_62_5)">
<g style="mix-blend-mode:multiply">
<path opacity="0.03" d="M98.1309 103.44C118.04 83.5307 118.04 51.252 98.1309 31.3431C78.222 11.4341 45.9433 11.4341 26.0343 31.3431C6.1254 51.252 6.1254 83.5307 26.0343 103.44C45.9433 123.349 78.222 123.349 98.1309 103.44Z" fill="#F7F7F7"/>
<path opacity="0.06" d="M97.7472 103.053C117.558 83.2416 117.558 51.1212 97.7472 31.3099C77.9359 11.4986 45.8154 11.4986 26.0041 31.3099C6.19283 51.1212 6.19283 83.2416 26.0041 103.053C45.8154 122.864 77.9359 122.864 97.7472 103.053Z" fill="#EFEFEF"/>
<path opacity="0.1" d="M97.3634 102.666C117.077 82.9523 117.077 50.9901 97.3634 31.2764C77.6497 11.5628 45.6876 11.5628 25.9739 31.2764C6.26024 50.9901 6.26025 82.9523 25.9739 102.666C45.6876 122.38 77.6497 122.38 97.3634 102.666Z" fill="#E6E6E6"/>
<path opacity="0.13" d="M81.885 112.638C107.226 101.35 118.618 71.6568 107.33 46.3159C96.0426 20.9749 66.3491 9.58264 41.0082 20.8704C15.6673 32.1583 4.27495 61.8517 15.5628 87.1927C26.8506 112.534 56.544 123.926 81.885 112.638Z" fill="#DEDEDE"/>
<path opacity="0.16" d="M79.5044 113.045C105.192 102.958 117.839 73.9559 107.751 48.268C97.6634 22.5801 68.6616 9.93357 42.9736 20.0213C17.2857 30.1089 4.63919 59.1108 14.7269 84.7987C24.8146 110.487 53.8164 123.133 79.5044 113.045Z" fill="#D6D6D6"/>
<path opacity="0.19" d="M77.8566 113.122C103.694 103.825 117.103 75.3428 107.806 49.5049C98.5091 23.6671 70.0266 10.2582 44.1888 19.5553C18.351 28.8524 4.94205 57.3349 14.2392 83.1727C23.5362 109.011 52.0187 122.419 77.8566 113.122Z" fill="#CECECE"/>
<path opacity="0.23" d="M76.6297 112.988C102.515 104.247 116.413 76.176 107.671 50.2907C98.9297 24.4053 70.8591 10.5076 44.9737 19.2491C19.0884 27.9907 5.19062 56.0614 13.9322 81.9467C22.6738 107.832 50.7444 121.73 76.6297 112.988Z" fill="#C5C5C5"/>
<path opacity="0.26" d="M75.6783 112.752C101.555 104.424 115.78 76.6963 107.453 50.82C99.1246 24.9436 71.3966 10.7178 45.5202 19.0457C19.6439 27.3736 5.41804 55.1017 13.746 80.978C22.0739 106.854 49.8019 121.08 75.6783 112.752Z" fill="#BDBDBD"/>
<path opacity="0.29" d="M74.8735 112.466C100.708 104.464 115.164 77.0343 107.162 51.1999C99.16 25.3654 71.73 10.9094 45.8956 18.9114C20.0611 26.9134 5.60504 54.3434 13.6071 80.1778C21.6091 106.012 49.0391 120.468 74.8735 112.466Z" fill="#B5B5B5"/>
<path opacity="0.32" d="M74.1891 112.135C99.9589 104.394 114.574 77.2285 106.833 51.4588C99.0918 25.6891 71.9259 11.074 46.1562 18.8151C20.3864 26.5561 5.77134 53.722 13.5124 79.4918C21.2535 105.261 48.4194 119.877 74.1891 112.135Z" fill="#ADADAD"/>
<path opacity="0.35" d="M73.5697 111.77C99.255 104.249 113.98 77.3301 106.46 51.6448C98.9391 25.9595 72.0204 11.2341 46.335 18.7547C20.6497 26.2754 5.9243 53.1942 13.445 78.8795C20.9656 104.565 47.8844 119.29 73.5697 111.77Z" fill="#A5A5A5"/>
<path opacity="0.39" d="M73.0434 111.391C98.6377 104.052 113.436 77.3543 106.097 51.7601C98.7584 26.1659 72.0607 11.3671 46.4665 18.7062C20.8723 26.0452 6.07352 52.7428 13.4125 78.3371C20.7516 103.931 47.4492 118.73 73.0434 111.391Z" fill="#9C9C9C"/>
<path opacity="0.42" d="M72.5372 110.993C98.0328 103.812 112.88 77.3224 105.699 51.8268C98.518 26.3312 72.0285 11.4842 46.5329 18.6651C21.0372 25.846 6.19023 52.3355 13.3711 77.8311C20.552 103.327 47.0416 118.174 72.5372 110.993Z" fill="#949494"/>
<path opacity="0.45" d="M72.0696 110.586C97.4608 103.544 112.336 77.2521 105.294 51.8609C98.2529 26.4697 71.9609 11.5944 46.5697 18.636C21.1786 25.6776 6.30328 51.9696 13.3449 77.3608C20.3865 102.752 46.6784 117.627 72.0696 110.586Z" fill="#8C8C8C"/>
<path opacity="0.48" d="M106.56 64.41C106.56 90.62 85.31 111.87 59.1 111.87C32.89 111.87 11.65 90.62 11.65 64.41C11.65 38.2 32.89 16.95 59.11 16.95C85.33 16.95 106.57 38.2 106.57 64.41H106.56Z" fill="#848484"/>
<path opacity="0.52" d="M106.1 64.19C106.1 90.26 84.96 111.4 58.89 111.4C32.82 111.4 11.69 90.26 11.69 64.19C11.69 38.12 32.82 16.99 58.89 16.99C84.96 16.99 106.1 38.13 106.1 64.2V64.19Z" fill="#7B7B7B"/>
<path opacity="0.55" d="M105.63 63.98C105.63 89.91 84.61 110.93 58.68 110.93C32.75 110.93 11.72 89.91 11.72 63.98C11.72 38.05 32.75 17.03 58.68 17.03C84.61 17.03 105.63 38.05 105.63 63.98Z" fill="#737373"/>
<path opacity="0.58" d="M105.17 63.7701C105.17 89.5601 84.26 110.47 58.47 110.47C32.68 110.47 11.76 89.5601 11.76 63.7701C11.76 37.9801 32.67 17.0601 58.46 17.0601C84.25 17.0601 105.16 37.9701 105.16 63.7601L105.17 63.7701Z" fill="#6B6B6B"/>
<path opacity="0.61" d="M104.7 63.5501C104.7 89.2001 83.9 110 58.25 110C32.6 110 11.8 89.2101 11.8 63.5501C11.8 37.8901 32.6 17.1001 58.25 17.1001C83.9 17.1001 104.7 37.9001 104.7 63.5501Z" fill="#636363"/>
<path opacity="0.65" d="M104.24 63.3401C104.24 88.8501 83.56 109.54 58.04 109.54C32.52 109.54 11.84 88.8501 11.84 63.3401C11.84 37.8301 32.52 17.1401 58.04 17.1401C83.56 17.1401 104.24 37.8201 104.24 63.3401Z" fill="#5A5A5A"/>
<path opacity="0.68" d="M103.77 63.1302C103.77 88.5102 83.2 109.08 57.82 109.08C32.44 109.08 11.88 88.5002 11.88 63.1302C11.88 37.7602 32.45 17.1802 57.82 17.1802C83.19 17.1802 103.77 37.7502 103.77 63.1302Z" fill="#525252"/>
<path opacity="0.71" d="M103.31 62.91C103.31 88.15 82.85 108.61 57.61 108.61C32.37 108.61 11.92 88.15 11.92 62.91C11.92 37.67 32.37 17.22 57.61 17.22C82.85 17.22 103.31 37.68 103.31 62.92V62.91Z" fill="#4A4A4A"/>
<path opacity="0.74" d="M102.84 62.7C102.84 87.8 82.49 108.14 57.4 108.14C32.31 108.14 11.95 87.8 11.95 62.7C11.95 37.6 32.3 17.26 57.4 17.26C82.5 17.26 102.84 37.61 102.84 62.7Z" fill="#424242"/>
<path opacity="0.77" d="M102.38 62.49C102.38 87.45 82.15 107.68 57.19 107.68C32.23 107.68 11.99 87.45 11.99 62.49C11.99 37.53 32.23 17.29 57.18 17.29C82.13 17.29 102.37 37.52 102.37 62.48L102.38 62.49Z" fill="#3A3A3A"/>
<path opacity="0.81" d="M101.91 62.2701C101.91 87.0901 81.79 107.21 56.97 107.21C32.15 107.21 12.03 87.0901 12.03 62.2701C12.03 37.4501 32.15 17.3301 56.97 17.3301C81.79 17.3301 101.91 37.4501 101.91 62.2701Z" fill="#313131"/>
<path opacity="0.84" d="M101.45 62.0601C101.45 86.7401 81.44 106.75 56.76 106.75C32.08 106.75 12.07 86.7401 12.07 62.0601C12.07 37.3801 32.08 17.3701 56.76 17.3701C81.44 17.3701 101.45 37.3801 101.45 62.0601Z" fill="#292929"/>
<path opacity="0.87" d="M100.98 61.8502C100.98 86.3902 81.08 106.29 56.54 106.29C32 106.29 12.11 86.3902 12.11 61.8502C12.11 37.3102 32 17.4102 56.54 17.4102C81.08 17.4102 100.98 37.3102 100.98 61.8502Z" fill="#212121"/>
<path opacity="0.9" d="M100.52 61.63C100.52 86.03 80.74 105.81 56.33 105.81C31.92 105.81 12.15 86.04 12.15 61.63C12.15 37.22 31.93 17.45 56.33 17.45C80.73 17.45 100.52 37.2299 100.52 61.6399V61.63Z" fill="#191919"/>
<path opacity="0.94" d="M100.05 61.42C100.05 85.68 80.38 105.35 56.12 105.35C31.86 105.35 12.18 85.68 12.18 61.42C12.18 37.16 31.85 17.49 56.12 17.49C80.39 17.49 100.05 37.16 100.05 61.42Z" fill="#101010"/>
<path opacity="0.97" d="M99.59 61.21C99.59 85.33 80.03 104.89 55.91 104.89C31.79 104.89 12.22 85.33 12.22 61.21C12.22 37.09 31.78 17.52 55.9 17.52C80.02 17.52 99.58 37.08 99.58 61.2L99.59 61.21Z" fill="#080808"/>
<path d="M99.12 60.9901C99.12 84.9801 79.67 104.42 55.69 104.42C31.71 104.42 12.26 84.9801 12.26 60.9901C12.26 37.0001 31.71 17.5601 55.69 17.5601C79.67 17.5601 99.12 37.0001 99.12 60.9901Z" fill="black"/>
</g>
<path d="M56.1786 110.625C83.5927 110.357 105.599 87.9166 105.331 60.5025C105.063 33.0884 82.6224 11.0821 55.2083 11.35C27.7942 11.618 5.78788 34.0587 6.05583 61.4728C6.32378 88.8869 28.7645 110.893 56.1786 110.625Z" fill="url(#paint0_radial_62_5)"/>
<mask id="mask0_62_5" style="mask-type:luminance" maskUnits="userSpaceOnUse" x="6" y="11" width="100" height="100">
<path d="M56.187 110.626C83.6011 110.348 105.6 87.8997 105.322 60.4857C105.044 33.0717 82.5961 11.0733 55.1821 11.3508C27.7681 11.6283 5.76958 34.0767 6.0471 61.4907C6.32462 88.9047 28.773 110.903 56.187 110.626Z" fill="white"/>
</mask>
<g mask="url(#mask0_62_5)">
<path d="M3.39 10.1501V60.7001V110.63H38.22V60.7001V10.1501H3.39Z" fill="#002395"/>
<path d="M38.09 10.1501V60.7001V110.63H72.91V60.7001V10.1501H38.09Z" fill="white"/>
<path d="M72.78 10.1501V60.7001V110.63H107.6V60.7001V10.1501H72.78Z" fill="#E2231A"/>
</g>
<g style="mix-blend-mode:overlay" opacity="0.6">
<path opacity="0.03" d="M10.23 77.9403C10.35 46.4303 35.66 21.2303 67.07 21.0103C74.93 20.9603 82.69 22.5303 89.5 25.4203C80.71 16.7703 68.46 11.5003 55.12 11.5703C28.16 11.7403 6.44 33.5003 6.33 60.3703C6.3 67.2403 7.7 73.7703 10.23 79.7203C10.22 79.1803 10.23 78.4903 10.23 77.9403Z" fill="#080808"/>
<path opacity="0.06" d="M10.22 77.3302C10.47 46.0302 35.38 21.3402 66.48 20.8802C74.24 20.7802 82.19 22.3102 88.92 25.1602C80.23 16.6702 67.98 11.5602 54.79 11.7102C28.07 12.0502 6.66 33.5302 6.45 60.0902C6.4 66.8802 7.75 73.3302 10.21 79.2302C10.2 78.6902 10.22 77.8702 10.22 77.3302Z" fill="#101010"/>
<path opacity="0.1" d="M10.22 76.7101C10.59 45.6201 35.1 21.4301 65.9 20.7501C73.56 20.6001 81.7 22.0801 88.36 24.9101C79.77 16.5701 67.51 11.6401 54.48 11.8601C27.97 12.3701 6.88 33.5701 6.57 59.8201C6.49 66.5301 7.8 72.9001 10.19 78.7501C10.18 78.2201 10.22 77.2501 10.22 76.7201V76.7101Z" fill="#191919"/>
<path opacity="0.13" d="M10.22 76.0903C10.71 45.2003 34.83 21.5303 65.32 20.6203C72.89 20.4203 81.21 21.8603 87.79 24.6503C79.3 16.4703 67.03 11.7003 54.16 11.9903C27.88 12.6803 7.1 33.6003 6.68 59.5403C6.57 66.1703 7.84 72.4603 10.16 78.2603C10.15 77.7403 10.21 76.6303 10.21 76.1003L10.22 76.0903Z" fill="#212121"/>
<path opacity="0.16" d="M10.21 75.4803C10.83 44.8003 34.54 21.6303 64.73 20.5003C72.2 20.2503 80.71 21.6403 87.21 24.4003C78.82 16.3703 66.54 11.7503 53.83 12.1403C27.78 12.9403 7.32 33.6403 6.8 59.2603C6.67 65.8103 7.89 72.0203 10.14 77.7703C10.13 77.2503 10.2 76.0003 10.21 75.4803Z" fill="#292929"/>
<path opacity="0.19" d="M10.21 74.8601C10.95 44.3901 34.27 21.6601 64.15 20.3701C71.53 20.0501 80.22 21.4201 86.65 24.1401C78.36 16.2701 66.07 11.8101 53.52 12.2801C27.68 13.2401 7.54 33.6701 6.92 58.9801C6.76 65.4501 7.94 71.5801 10.11 77.2801C10.1 76.7701 10.19 75.3801 10.2 74.8601H10.21Z" fill="#313131"/>
<path opacity="0.23" d="M10.2 74.2501C11 43.9901 33.98 21.7601 63.56 20.2501C70.84 19.8801 79.72 21.2001 86.07 23.9001C77.88 16.1901 65.58 11.8901 53.19 12.4401C27.59 13.5501 7.76 33.7101 7.03 58.7001C6.85 65.0901 7.98 71.1401 10.08 76.7901C10.07 76.2801 10.18 74.7601 10.19 74.2501H10.2Z" fill="#3A3A3A"/>
<path opacity="0.26" d="M10.2 73.6301C11.11 43.5701 33.7 21.8501 62.98 20.1201C70.16 19.7001 79.23 20.9801 85.51 23.6401C77.42 16.0801 65.11 11.9601 52.88 12.5701C27.49 13.8601 7.97 33.7401 7.15 58.4301C6.94 64.7401 8.03 70.7101 10.06 76.3101C10.05 75.8101 10.18 74.1401 10.19 73.6401L10.2 73.6301Z" fill="#424242"/>
<path opacity="0.29" d="M10.19 73.0201C11.22 43.1701 33.42 21.9401 62.39 20.0001C69.48 19.5201 78.73 20.7601 84.93 23.3901C76.94 15.9901 64.62 12.0301 52.55 12.7201C27.4 14.1601 8.19 33.7801 7.27 58.1501C7.03 64.3801 8.08 70.2801 10.04 75.8201C10.03 75.3301 10.18 73.5201 10.19 73.0201Z" fill="#4A4A4A"/>
<path opacity="0.32" d="M10.19 72.4002C11.34 42.7602 33.14 22.0302 61.8 19.8702C68.79 19.3402 78.23 20.5402 84.35 23.1302C76.46 15.8802 64.13 12.0902 52.22 12.8602C27.3 14.4702 8.41 33.8102 7.38 57.8702C7.12 64.0202 8.11 69.8402 10.01 75.3302C10 74.8402 10.16 72.8902 10.18 72.4002H10.19Z" fill="#525252"/>
<path opacity="0.35" d="M10.18 71.7903C11.45 42.3503 32.85 22.1303 61.21 19.7503C68.1 19.1703 77.73 20.3203 83.78 22.8903C75.99 15.8003 63.66 12.1703 51.91 13.0203C27.21 14.7803 8.63001 33.8503 7.50001 57.5903C7.21001 63.6603 8.16 69.4003 9.99 74.8403C9.98 74.3603 10.16 72.2703 10.18 71.7903Z" fill="#5A5A5A"/>
<path opacity="0.39" d="M10.18 71.1702C11.57 41.9402 32.58 22.2202 60.63 19.6202C67.43 18.9902 77.24 20.1002 83.21 22.6302C75.52 15.7002 63.18 12.2402 51.59 13.1502C27.11 15.0902 8.85 33.8802 7.62 57.3102C7.3 63.3102 8.21 68.9602 9.97 74.3502C9.96 73.8702 10.16 71.6502 10.18 71.1702Z" fill="#636363"/>
<path opacity="0.42" d="M10.17 70.5602C11.68 41.5402 32.29 22.3202 60.04 19.5002C66.74 18.8202 76.74 19.8802 82.64 22.3802C75.05 15.6002 62.7 12.3102 51.27 13.3002C27.01 15.4002 9.07 33.9202 7.73 57.0402C7.39 62.9602 8.25 68.5302 9.94 73.8702C9.93 73.4002 10.15 71.0302 10.17 70.5602Z" fill="#6B6B6B"/>
<path opacity="0.45" d="M10.17 69.9401C11.8 41.1201 32.02 22.4201 59.46 19.3601C66.07 18.6301 76.25 19.6501 82.07 22.1101C74.59 15.4901 62.22 12.3601 50.95 13.4301C26.92 15.7101 9.29 33.9501 7.85 56.7601C7.48 62.6001 8.3 68.0901 9.92 73.3801C9.91 72.9201 10.14 70.4101 10.17 69.9401Z" fill="#737373"/>
<path opacity="0.48" d="M10.16 69.3302C11.91 40.7202 31.73 22.5202 58.87 19.2402C65.38 18.4502 75.75 19.4302 81.49 21.8702C74.11 15.4002 61.73 12.4502 50.62 13.5902C26.82 16.0202 9.51 33.9902 7.97 56.4802C7.57 62.2402 8.35 67.6502 9.89 72.8902C9.88 72.4302 10.13 69.7802 10.16 69.3302Z" fill="#7B7B7B"/>
<path opacity="0.52" d="M10.16 68.7103C12.03 40.3103 31.45 22.6103 58.29 19.1103C64.7 18.2703 75.26 19.2103 80.93 21.6103C73.65 15.3003 61.26 12.5103 50.31 13.7203C26.73 16.3303 9.73 34.0203 8.09 56.2003C7.67 61.8803 8.4 67.2103 9.87 72.4003C9.86 71.9503 10.13 69.1603 10.16 68.7103Z" fill="#848484"/>
<path opacity="0.55" d="M10.15 68.1002C12.14 39.9002 31.17 22.7202 57.7 18.9902C64.02 18.1002 74.76 18.9902 80.35 21.3602C73.17 15.2102 60.77 12.5902 49.98 13.8702C26.63 16.6502 9.95 34.0602 8.2 55.9302C7.75 61.5302 8.44 66.7802 9.84 71.9202C9.83 71.4802 10.12 68.5502 10.15 68.1002Z" fill="#8C8C8C"/>
<path opacity="0.58" d="M10.15 67.4801C12.27 39.4901 30.89 22.8101 57.12 18.8601C63.34 17.9201 74.27 18.7701 79.78 21.1001C72.7 15.1001 60.29 12.6501 49.66 14.0101C26.53 16.9601 10.17 34.0901 8.32 55.6501C7.84 61.1701 8.49 66.3401 9.82 71.4301C9.81 70.9901 10.12 67.9201 10.15 67.4801Z" fill="#949494"/>
<path opacity="0.61" d="M10.14 66.8701C12.38 39.0901 30.6 22.9201 56.53 18.7401C62.65 17.7501 73.77 18.5501 79.21 20.8601C72.23 15.0201 59.81 12.7401 49.34 14.1701C26.44 17.2801 10.39 34.1301 8.44 55.3701C7.94 60.8101 8.54 65.9001 9.8 70.9401C9.79 70.5101 10.11 67.3001 10.15 66.8701H10.14Z" fill="#9C9C9C"/>
<path opacity="0.65" d="M10.14 66.2502C12.51 38.6702 30.33 23.0202 55.94 18.6102C61.97 17.5702 73.27 18.3302 78.63 20.6002C71.75 14.9102 59.33 12.8102 49.01 14.3002C26.34 17.5902 10.61 34.1602 8.55 55.0902C8.02 60.4502 8.58 65.4602 9.77 70.4502C9.76 70.0202 10.1 66.6702 10.14 66.2502Z" fill="#A5A5A5"/>
<path opacity="0.68" d="M10.13 65.6401C12.63 38.2701 30.04 23.1301 55.35 18.4901C61.28 17.4001 72.77 18.1101 78.06 20.3501C71.28 14.8201 58.85 12.8801 48.69 14.4501C26.25 17.9101 10.83 34.2001 8.67 54.8101C8.12 60.0901 8.63 65.0201 9.75 69.9601C9.74 69.5401 10.1 66.0501 10.14 65.6301L10.13 65.6401Z" fill="#ADADAD"/>
<path opacity="0.71" d="M10.13 65.0202C12.76 37.8602 29.77 23.2202 54.77 18.3602C60.61 17.2202 72.28 17.8802 77.49 20.0902C70.81 14.7202 58.37 12.9502 48.37 14.5902C26.15 18.2302 11.05 34.2302 8.79 54.5402C8.21 59.7402 8.67 64.5902 9.73 69.4802C9.72 69.0702 10.1 65.4402 10.14 65.0202H10.13Z" fill="#B5B5B5"/>
<path opacity="0.74" d="M10.12 64.4102C12.88 37.4502 29.48 23.3402 54.18 18.2402C59.92 17.0602 71.79 17.6702 76.91 19.8502C70.33 14.6302 57.88 13.0402 48.04 14.7502C26.06 18.5502 11.27 34.2702 8.9 54.2602C8.29 59.3802 8.71 64.1502 9.69 68.9902C9.68 68.5802 10.08 64.8102 10.12 64.4002V64.4102Z" fill="#BDBDBD"/>
<path opacity="0.77" d="M10.12 63.7901C13.01 37.0401 29.21 23.4401 53.6 18.1101C59.24 16.8801 71.3 17.4401 76.35 19.5901C69.87 14.5301 57.41 13.1101 47.73 14.8801C25.96 18.8701 11.49 34.3001 9.02 53.9801C8.39 59.0201 8.76 63.7101 9.67 68.5001C9.66 68.1001 10.07 64.1901 10.12 63.7901Z" fill="#C5C5C5"/>
<path opacity="0.81" d="M10.12 63.1703C13.14 36.6303 28.93 23.5403 53.02 17.9803C58.57 16.7003 70.81 17.2203 75.78 19.3303C69.4 14.4203 56.93 13.1803 47.41 15.0203C25.87 19.1903 11.71 34.3403 9.14 53.7003C8.48 58.6603 8.81 63.2703 9.65 68.0103C9.64 67.6103 10.07 63.5603 10.12 63.1703Z" fill="#CECECE"/>
<path opacity="0.84" d="M10.11 62.5602C13.26 36.2302 28.65 23.6602 52.43 17.8602C57.88 16.5302 70.31 17.0002 75.21 19.0802C68.93 14.3302 56.45 13.2602 47.1 15.1702C25.78 19.5202 11.93 34.3702 9.25 53.4302C8.56 58.3102 8.85 62.8402 9.62 67.5302C9.61 67.1402 10.06 62.9502 10.11 62.5602Z" fill="#D6D6D6"/>
<path opacity="0.87" d="M10.11 61.9403C13.4 35.8203 28.38 23.7603 51.85 17.7203C57.21 16.3403 69.82 16.7703 74.64 18.8203C68.46 14.2303 55.98 13.3303 46.78 15.3103C25.68 19.8403 12.15 34.4103 9.37 53.1503C8.66 57.9503 8.9 62.4003 9.6 67.0403C9.59 66.6603 10.06 62.3303 10.11 61.9403Z" fill="#DEDEDE"/>
<path opacity="0.9" d="M10.1 61.3301C13.56 35.4201 28.11 23.9301 51.26 17.6001C56.52 16.1801 69.32 16.5501 74.06 18.5701C67.98 14.1301 55.49 13.4101 46.45 15.4501C25.59 20.1701 12.37 34.4401 9.49 52.8701C8.75 57.5901 8.95 61.9601 9.58 66.5501C9.57 66.1701 10.06 61.7001 10.11 61.3301H10.1Z" fill="#E6E6E6"/>
<path opacity="0.94" d="M10.1 60.7102C13.69 35.0102 27.83 24.0202 50.68 17.4702C55.85 16.0002 68.83 16.3302 73.5 18.3102C67.52 14.0302 55.03 13.4902 46.14 15.5902C25.51 20.5302 12.59 34.4802 9.6 52.5902C8.83 57.2302 8.99 61.5202 9.55 66.0602C9.54 65.6902 10.05 61.0802 10.1 60.7102Z" fill="#EFEFEF"/>
<path opacity="0.97" d="M10.09 60.1001C13.8 34.6101 27.55 24.1301 50.08 17.3501C55.15 15.8301 68.32 16.1101 72.91 18.0601C67.04 13.9301 54.53 13.5701 45.8 15.7401C25.41 20.8401 12.81 34.5101 9.72 52.3101C8.93 56.8701 9.04 61.0801 9.53 65.5701C9.52 65.2001 10.04 60.4601 10.1 60.0901L10.09 60.1001Z" fill="#F7F7F7"/>
<path d="M10.09 59.4802C13.93 34.1902 27.27 24.2202 49.5 17.2202C54.48 15.6502 67.83 15.8902 72.34 17.8102C66.57 13.8402 54.05 13.6502 45.48 15.8902C25.32 21.1602 13.03 34.5502 9.84 52.0402C9.02 56.5202 9.09 60.6502 9.51 65.0902C9.5 64.7302 10.04 59.8402 10.1 59.4802H10.09Z" fill="white"/>
</g>
<g style="mix-blend-mode:overlay" opacity="0.2">
<path opacity="0.03" d="M97.79 36.8601C101.68 67.9001 79.96 95.9401 49.06 100.16C41.33 101.21 33.49 100.65 26.41 98.6701C36.17 106.07 48.9 109.7 62.03 107.93C88.56 104.33 107.18 80.1401 103.86 53.6701C103.01 46.9001 100.8 40.6501 97.56 35.1201C97.64 35.6501 97.72 36.3301 97.79 36.8701V36.8601Z" fill="#080808"/>
<path opacity="0.06" d="M97.87 37.4701C101.61 68.3201 80.22 95.8101 49.65 100.21C42.02 101.3 34 100.8 27.01 98.8501C36.65 106.11 49.36 109.57 62.33 107.75C88.61 104.01 106.96 80.1401 103.78 53.9601C102.97 47.2701 100.81 41.0901 97.64 35.5901C97.72 36.1201 97.8 36.9401 97.87 37.4701Z" fill="#101010"/>
<path opacity="0.1" d="M97.95 38.0701C101.54 68.7301 80.48 95.6701 50.24 100.26C42.71 101.38 34.51 100.96 27.6 99.0201C37.12 106.14 49.82 109.43 62.62 107.56C88.66 103.68 106.73 80.1201 103.69 54.2401C102.91 47.6201 100.81 41.5101 97.72 36.0601C97.8 36.5801 97.88 37.5401 97.95 38.0701Z" fill="#191919"/>
<path opacity="0.13" d="M98.04 38.68C101.48 69.16 80.75 95.54 50.84 100.31C43.41 101.47 35.04 101.11 28.2 99.2C37.6 106.18 50.29 109.31 62.93 107.38C88.72 103.37 106.52 80.12 103.63 54.53C102.89 47.99 100.84 41.95 97.82 36.54C97.9 37.05 97.98 38.15 98.04 38.67V38.68Z" fill="#212121"/>
<path opacity="0.16" d="M98.12 39.29C101.41 69.58 81.01 95.41 51.43 100.37C44.1 101.57 35.55 101.28 28.79 99.39C38.07 106.23 50.75 109.21 63.22 107.21C88.78 103.11 106.29 80.13 103.54 54.83C102.84 48.36 100.84 42.4 97.9 37.03C97.98 37.54 98.06 38.78 98.12 39.29Z" fill="#292929"/>
<path opacity="0.19" d="M98.2 39.8902C101.35 69.9902 81.28 95.3402 52.02 100.41C44.8 101.66 36.06 101.42 29.39 99.5602C38.55 106.25 51.22 109.08 63.52 107.02C88.83 102.79 106.07 80.1102 103.46 55.1102C102.79 48.7202 100.85 42.8302 97.99 37.5002C98.07 38.0002 98.15 39.3802 98.21 39.8902H98.2Z" fill="#313131"/>
<path opacity="0.23" d="M98.28 40.5002C101.34 70.4002 81.54 95.2102 52.61 100.46C45.49 101.75 36.58 101.58 29.98 99.7302C39.03 106.28 51.68 108.94 63.81 106.84C88.88 102.48 105.85 80.1102 103.37 55.4002C102.74 49.0802 100.85 43.2702 98.06 37.9802C98.14 38.4802 98.22 40.0002 98.27 40.5002H98.28Z" fill="#3A3A3A"/>
<path opacity="0.26" d="M98.37 41.1002C101.29 70.8102 81.82 95.0802 53.21 100.51C46.19 101.84 37.1 101.73 30.58 99.9102C39.51 106.32 52.15 108.82 64.12 106.66C88.95 102.17 105.64 80.1002 103.31 55.6902C102.71 49.4502 100.88 43.7002 98.17 38.4602C98.25 38.9502 98.33 40.6102 98.38 41.1102L98.37 41.1002Z" fill="#424242"/>
<path opacity="0.29" d="M98.45 41.7102C101.23 71.2402 82.08 94.9602 53.8 100.56C46.88 101.93 37.61 101.89 31.17 100.09C39.98 106.36 52.61 108.69 64.41 106.48C89 101.86 105.41 80.1002 103.22 55.9802C102.66 49.8102 100.88 44.1402 98.24 38.9302C98.32 39.4102 98.4 41.2102 98.45 41.7002V41.7102Z" fill="#4A4A4A"/>
<path opacity="0.32" d="M98.53 42.3102C101.17 71.6502 82.34 94.8302 54.39 100.61C47.57 102.02 38.13 102.05 31.77 100.27C40.46 106.4 53.08 108.57 64.71 106.3C89.05 101.55 105.19 80.1002 103.14 56.2702C102.62 50.1802 100.89 44.5802 98.33 39.4102C98.41 39.8902 98.49 41.8302 98.53 42.3102Z" fill="#525252"/>
<path opacity="0.35" d="M98.62 42.9201C101.12 72.0701 82.61 94.7001 54.99 100.66C48.27 102.11 38.65 102.2 32.37 100.44C40.94 106.43 53.55 108.43 65.01 106.11C89.11 101.22 104.97 80.0801 103.06 56.5601C102.57 50.5401 100.9 45.0201 98.41 39.8901C98.48 40.3601 98.57 42.4401 98.61 42.9201H98.62Z" fill="#5A5A5A"/>
<path opacity="0.39" d="M98.7 43.5201C101.05 72.4801 82.87 94.5701 55.58 100.71C48.97 102.2 39.16 102.36 32.96 100.62C41.41 106.47 54.01 108.31 65.31 105.93C89.17 100.91 104.75 80.0801 102.99 56.8501C102.54 50.9101 100.92 45.4601 98.51 40.3701C98.58 40.8401 98.67 43.0601 98.71 43.5301L98.7 43.5201Z" fill="#636363"/>
<path opacity="0.42" d="M98.78 44.1301C100.99 72.9001 83.14 94.4401 56.17 100.76C49.66 102.29 39.68 102.51 33.55 100.8C41.88 106.51 54.47 108.18 65.6 105.75C89.21 100.59 104.52 80.0701 102.9 57.1401C102.49 51.2701 100.92 45.9001 98.59 40.8501C98.66 41.3101 98.75 43.6701 98.78 44.1401V44.1301Z" fill="#6B6B6B"/>
<path opacity="0.45" d="M98.86 44.7301C100.92 73.3101 83.4 94.3101 56.76 100.8C50.35 102.36 40.19 102.66 34.15 100.97C42.36 106.54 54.94 108.04 65.9 105.56C89.27 100.27 104.3 80.0601 102.82 57.4201C102.44 51.6301 100.93 46.3201 98.67 41.3201C98.74 41.7701 98.83 44.2801 98.86 44.7401V44.7301Z" fill="#737373"/>
<path opacity="0.48" d="M98.95 45.34C100.87 73.74 83.67 94.1801 57.36 100.86C51.05 102.46 40.71 102.82 34.75 101.15C42.84 106.58 55.41 107.91 66.2 105.38C89.33 99.95 104.09 80.06 102.74 57.71C102.4 51.99 100.94 46.76 98.76 41.8C98.83 42.25 98.92 44.89 98.95 45.34Z" fill="#7B7B7B"/>
<path opacity="0.52" d="M99.03 45.94C100.8 74.15 83.93 94.04 57.95 100.9C51.74 102.54 41.22 102.97 35.34 101.32C43.32 106.61 55.87 107.77 66.5 105.19C89.38 99.62 103.87 80.04 102.67 57.99C102.36 52.35 100.96 47.19 98.85 42.26C98.92 42.7 99.01 45.48 99.03 45.93V45.94Z" fill="#848484"/>
<path opacity="0.55" d="M99.11 46.5502C100.73 74.5702 84.19 93.9102 58.54 100.96C52.43 102.64 41.74 103.13 35.93 101.51C43.79 106.66 56.33 107.66 66.79 105.02C89.43 99.3202 103.64 80.0502 102.58 58.2902C102.31 52.7202 100.96 47.6402 98.93 42.7502C99 43.1902 99.09 46.1102 99.11 46.5502Z" fill="#8C8C8C"/>
<path opacity="0.58" d="M99.2 47.1502C100.67 74.9802 84.46 93.7702 59.14 101C53.13 102.71 42.26 103.28 36.54 101.67C44.28 106.67 56.8 107.51 67.1 104.82C89.5 98.9802 103.43 80.0202 102.51 58.5602C102.28 53.0702 100.98 48.0602 99.02 43.2102C99.09 43.6402 99.17 46.7002 99.2 47.1402V47.1502Z" fill="#949494"/>
<path opacity="0.61" d="M99.28 47.7602C100.61 75.4002 84.72 93.6402 59.73 101.06C53.83 102.81 42.77 103.44 37.13 101.86C44.75 106.72 57.26 107.39 67.39 104.65C89.54 98.6702 103.2 80.0302 102.42 58.8602C102.22 53.4402 100.98 48.5002 99.1 43.7002C99.17 44.1202 99.25 47.3302 99.27 47.7602H99.28Z" fill="#9C9C9C"/>
<path opacity="0.65" d="M99.36 48.3602C100.53 75.8202 84.98 93.5002 60.32 101.1C54.52 102.89 43.29 103.59 37.72 102.03C45.22 106.75 57.72 107.25 67.69 104.46C89.6 98.3402 102.98 80.0202 102.35 59.1502C102.19 53.8102 101 48.9402 99.2 44.1802C99.27 44.6002 99.35 47.9402 99.37 48.3702L99.36 48.3602Z" fill="#A5A5A5"/>
<path opacity="0.68" d="M99.45 48.9702C100.47 76.2402 85.25 93.3702 60.92 101.15C55.22 102.97 43.81 103.74 38.32 102.21C45.7 106.79 58.19 107.12 67.99 104.28C89.65 98.0102 102.76 80.0102 102.27 59.4402C102.14 54.1702 101.01 49.3802 99.28 44.6602C99.35 45.0702 99.43 48.5502 99.45 48.9702Z" fill="#ADADAD"/>
<path opacity="0.71" d="M99.53 49.5701C100.4 76.6501 85.51 93.2201 61.51 101.2C55.91 103.06 44.32 103.9 38.92 102.38C46.18 106.82 58.66 106.98 68.29 104.09C89.71 97.6801 102.54 80.0001 102.19 59.7201C102.1 54.5301 101.02 49.8101 99.37 45.1301C99.43 45.5401 99.52 49.1601 99.54 49.5701H99.53Z" fill="#B5B5B5"/>
<path opacity="0.74" d="M99.61 50.1801C100.33 77.0701 85.77 93.0901 62.1 101.25C56.6 103.15 44.84 104.05 39.51 102.56C46.65 106.86 59.12 106.84 68.58 103.91C89.75 97.3501 102.32 80.0001 102.1 60.0101C102.05 54.8901 101.02 50.2501 99.44 45.6001C99.5 46.0001 99.59 49.7601 99.6 50.1701L99.61 50.1801Z" fill="#BDBDBD"/>
<path opacity="0.77" d="M99.69 50.7801C100.25 77.4901 86.03 92.9401 62.69 101.3C57.29 103.23 45.35 104.21 40.1 102.74C47.12 106.9 59.57 106.71 68.88 103.73C89.81 97.0301 102.1 79.9901 102.03 60.3001C102.01 55.2601 101.05 50.6901 99.54 46.0801C99.6 46.4701 99.69 50.3801 99.7 50.7801H99.69Z" fill="#C5C5C5"/>
<path opacity="0.81" d="M99.78 51.3901C100.18 77.9101 86.3 92.8101 63.29 101.35C57.99 103.32 45.87 104.36 40.7 102.92C47.6 106.94 60.04 106.58 69.18 103.55C89.86 96.7001 101.88 79.9901 101.95 60.5901C101.97 55.6201 101.06 51.1201 99.62 46.5601C99.68 46.9501 99.77 50.9901 99.78 51.3901Z" fill="#CECECE"/>
<path opacity="0.84" d="M99.86 52C100.11 78.33 86.56 92.67 63.88 101.41C58.68 103.41 46.39 104.53 41.3 103.1C48.09 106.98 60.51 106.45 69.48 103.37C89.91 96.37 101.66 79.98 101.87 60.88C101.92 55.99 101.07 51.56 99.71 47.04C99.77 47.42 99.86 51.61 99.86 51.99V52Z" fill="#D6D6D6"/>
<path opacity="0.87" d="M99.94 52.6C100.03 78.74 86.81 92.52 64.47 101.45C59.37 103.49 46.9 104.67 41.89 103.27C48.56 107.01 60.97 106.3 69.78 103.18C89.97 96.03 101.44 79.97 101.79 61.16C101.88 56.34 101.08 51.99 99.8 47.51C99.86 47.89 99.95 52.21 99.95 52.59L99.94 52.6Z" fill="#DEDEDE"/>
<path opacity="0.9" d="M100.03 53.2102C99.92 79.1602 87.06 92.3302 65.07 101.5C60.07 103.56 47.42 104.83 42.49 103.45C49.04 107.05 61.43 106.17 70.08 103.01C90.02 95.7102 101.22 79.9802 101.71 61.4602C101.84 56.7202 101.09 52.4402 99.88 48.0002C99.94 48.3702 100.03 52.8302 100.03 53.2102Z" fill="#E6E6E6"/>
<path opacity="0.94" d="M100.11 53.8102C99.85 79.5802 87.32 92.1902 65.66 101.55C60.76 103.65 47.94 104.98 43.08 103.63C49.51 107.09 61.88 106.02 70.37 102.83C90.05 95.3502 100.99 79.9702 101.63 61.7502C101.79 57.0802 101.1 52.8802 99.97 48.4802C100.03 48.8402 100.12 53.4502 100.11 53.8202V53.8102Z" fill="#EFEFEF"/>
<path opacity="0.97" d="M100.19 54.4202C99.78 80.0002 87.58 92.0602 66.25 101.6C61.45 103.74 48.45 105.14 43.68 103.8C49.99 107.11 62.35 105.88 70.67 102.64C90.1 95.0202 100.77 79.9602 101.55 62.0402C101.75 57.4502 101.11 53.3102 100.05 48.9502C100.11 49.3102 100.2 54.0502 100.19 54.4202Z" fill="#F7F7F7"/>
<path d="M100.28 55.0202C99.72 80.4102 87.85 91.9302 66.85 101.65C62.15 103.83 48.97 105.29 44.28 103.98C50.47 107.15 62.82 105.75 70.98 102.46C90.17 94.7002 100.57 79.9502 101.48 62.3302C101.72 57.8102 101.13 53.7502 100.15 49.4302C100.21 49.7802 100.29 54.6702 100.29 55.0302L100.28 55.0202Z" fill="white"/>
</g>
</g>
<defs>
<radialGradient id="paint0_radial_62_5" cx="0" cy="0" r="1" gradientUnits="userSpaceOnUse" gradientTransform="translate(42.8847 39.1842) scale(56.01)">
<stop stop-color="#F2F2F2"/>
<stop offset="1" stop-color="#D6D6D6"/>
</radialGradient>
<clipPath id="clip0_62_5">
<rect width="118.65" height="123.86" fill="white" transform="translate(0.5)"/>
</clipPath>
</defs>
</svg>
