<svg width="299" height="77" viewBox="0 0 299 77" fill="none" xmlns="http://www.w3.org/2000/svg">
<path d="M67.28 14.26H71.81C73.41 14.26 74.78 14 75.92 13.49C77.05 12.98 77.92 12.24 78.54 11.29C79.15 10.34 79.46 9.19999 79.46 7.87999C79.46 6.55999 79.15 5.40999 78.54 4.44999C77.93 3.48999 77.06 2.75999 75.92 2.24999C74.79 1.73999 73.42 1.48999 71.81 1.48999H64.67V19.8H67.29V14.25L67.28 14.26ZM75.53 4.83999C76.39 5.55999 76.82 6.56999 76.82 7.86999C76.82 9.16999 76.39 10.19 75.53 10.9C74.67 11.62 73.4 11.97 71.72 11.97H67.27V3.75999H71.72C73.39 3.75999 74.66 4.11999 75.53 4.82999V4.83999Z" fill="black"/>
<path d="M87.29 11.82C85.91 11.82 84.82 12 84.01 12.37C83.2 12.74 82.61 13.22 82.26 13.83C81.9 14.44 81.72 15.12 81.72 15.87C81.72 16.62 81.93 17.36 82.35 17.98C82.77 18.6 83.37 19.08 84.14 19.43C84.92 19.78 85.82 19.95 86.85 19.95C88.12 19.95 89.18 19.71 90.02 19.23C90.61 18.89 91.07 18.46 91.41 17.96V19.79H93.79V11.42C93.79 9.52004 93.28 8.11004 92.25 7.18004C91.22 6.26004 89.76 5.79004 87.85 5.79004C86.75 5.79004 85.7 5.94004 84.7 6.25004C83.7 6.56004 82.84 7.00004 82.12 7.57004L83.17 9.45004C83.71 9.00004 84.37 8.64004 85.16 8.36004C85.95 8.09004 86.75 7.95004 87.57 7.95004C88.81 7.95004 89.74 8.24004 90.36 8.83004C90.98 9.41004 91.29 10.24 91.29 11.3V11.8H87.31L87.29 11.82ZM89.74 17.39C89.03 17.81 88.21 18.02 87.27 18.02C86.33 18.02 85.56 17.82 85.02 17.41C84.48 17 84.21 16.46 84.21 15.78C84.21 15.19 84.43 14.68 84.86 14.26C85.3 13.84 86.14 13.63 87.4 13.63H91.27V15.57C90.96 16.37 90.45 16.98 89.74 17.4V17.39Z" fill="black"/>
<path d="M104.47 0.52002H101.28L97.72 3.92002H100.08L104.47 0.52002Z" fill="black"/>
<path d="M100.94 5.93994H98.43V19.7999H100.94V5.93994Z" fill="black"/>
<path d="M104.89 11.8898C105.2 12.3698 105.62 12.7398 106.15 13.0098C106.68 13.2798 107.25 13.4898 107.88 13.6398C108.51 13.7898 109.14 13.9098 109.76 14.0098C110.39 14.1098 110.96 14.2198 111.47 14.3398C111.98 14.4598 112.4 14.6498 112.71 14.8898C113.02 15.1298 113.18 15.4698 113.18 15.9098C113.18 16.4998 112.92 16.9698 112.41 17.2998C111.9 17.6298 111.05 17.7998 109.89 17.7998C108.98 17.7998 108.09 17.6598 107.22 17.3798C106.35 17.0998 105.62 16.7598 105.02 16.3598L103.97 18.3498C104.56 18.7998 105.38 19.1898 106.42 19.4998C107.46 19.8098 108.55 19.9698 109.7 19.9698C110.94 19.9698 112 19.7998 112.89 19.4598C113.78 19.1198 114.47 18.6498 114.96 18.0298C115.45 17.4198 115.69 16.6998 115.69 15.8598C115.69 15.0798 115.53 14.4498 115.21 13.9798C114.89 13.5098 114.47 13.1398 113.95 12.8798C113.43 12.6198 112.86 12.4098 112.24 12.2698C111.61 12.1198 110.99 11.9998 110.36 11.8998C109.73 11.7998 109.16 11.6898 108.65 11.5498C108.14 11.4098 107.72 11.2098 107.4 10.9598C107.08 10.7098 106.92 10.3498 106.92 9.86981C106.92 9.30981 107.19 8.84981 107.73 8.49981C108.27 8.13981 109.09 7.95982 110.19 7.95982C110.87 7.95982 111.55 8.03982 112.23 8.19982C112.91 8.35982 113.56 8.63982 114.19 9.05982L115.26 7.06981C114.67 6.66981 113.9 6.35981 112.97 6.13981C112.04 5.91981 111.12 5.80981 110.21 5.80981C109.02 5.80981 108 5.97981 107.14 6.31981C106.28 6.65981 105.61 7.13982 105.14 7.76982C104.67 8.39982 104.43 9.12982 104.43 9.96982C104.43 10.8098 104.59 11.4098 104.9 11.8898H104.89Z" fill="black"/>
<path d="M127.13 3.27C127.64 3.27 128.05 3.11 128.36 2.79C128.67 2.47 128.83 2.07 128.83 1.6C128.83 1.13 128.67 0.770001 128.35 0.460001C128.03 0.160001 127.62 0 127.13 0C126.64 0 126.24 0.160001 125.91 0.470001C125.59 0.780001 125.43 1.18 125.43 1.65C125.43 2.12 125.59 2.49 125.91 2.8C126.23 3.11 126.64 3.27 127.13 3.27Z" fill="black"/>
<path d="M128.38 5.93994H125.87V19.7999H128.38V5.93994Z" fill="black"/>
<path d="M137.75 8.57981C138.41 8.22982 139.19 8.05981 140.08 8.05981C141.27 8.05981 142.19 8.39982 142.84 9.07982C143.49 9.75982 143.82 10.7698 143.82 12.1098V19.7998H146.33V11.8198C146.33 10.4598 146.09 9.33982 145.6 8.44982C145.11 7.55982 144.44 6.89982 143.57 6.45982C142.7 6.01982 141.71 5.80981 140.57 5.80981C139.31 5.80981 138.22 6.05981 137.27 6.56981C136.57 6.94981 136 7.43982 135.57 8.03982V5.93982H133.16V19.7998H135.67V12.6598C135.67 11.6498 135.85 10.7998 136.21 10.1198C136.57 9.43981 137.08 8.92981 137.74 8.57981H137.75Z" fill="black"/>
<path d="M156.92 19.7999L162.99 5.93994H160.53L155.67 17.0499L150.91 5.93994H148.29L154.36 19.7999H156.92Z" fill="black"/>
<path d="M166.6 3.27C167.11 3.27 167.52 3.11 167.83 2.79C168.14 2.47 168.3 2.07 168.3 1.6C168.3 1.13 168.14 0.770001 167.82 0.460001C167.5 0.160001 167.09 0 166.6 0C166.11 0 165.71 0.160001 165.38 0.470001C165.06 0.780001 164.9 1.18 164.9 1.65C164.9 2.12 165.06 2.49 165.38 2.8C165.7 3.11 166.11 3.27 166.6 3.27Z" fill="black"/>
<path d="M167.86 5.93994H165.35V19.7999H167.86V5.93994Z" fill="black"/>
<path d="M177.69 17.8399C176.99 17.8399 176.46 17.6399 176.08 17.2399C175.7 16.8399 175.52 16.2599 175.52 15.5099V7.9999H179.5V5.9299H175.52V2.8999H173.01V5.9299H170.66V7.9999H173.01V15.6099C173.01 17.0099 173.39 18.0799 174.16 18.8299C174.93 19.5799 176.01 19.9499 177.4 19.9499C177.98 19.9499 178.53 19.8699 179.06 19.7099C179.59 19.5499 180.05 19.3099 180.43 18.9799L179.64 17.1799C179.12 17.6199 178.46 17.8299 177.68 17.8299L177.69 17.8399Z" fill="black"/>
<path d="M187.53 19.96C188.8 19.96 189.86 19.72 190.7 19.24C191.29 18.9 191.75 18.47 192.09 17.97V19.8H194.47V11.43C194.47 9.53005 193.96 8.12005 192.93 7.19005C191.9 6.27005 190.44 5.80005 188.53 5.80005C187.43 5.80005 186.38 5.95005 185.38 6.26005C184.38 6.57005 183.52 7.01005 182.8 7.58005L183.85 9.46005C184.39 9.01005 185.05 8.65005 185.84 8.37005C186.63 8.10005 187.43 7.96005 188.25 7.96005C189.49 7.96005 190.42 8.25005 191.04 8.84005C191.66 9.42005 191.97 10.25 191.97 11.31V11.81H187.99C186.61 11.81 185.52 11.99 184.71 12.36C183.9 12.73 183.31 13.21 182.96 13.82C182.6 14.43 182.42 15.11 182.42 15.86C182.42 16.61 182.63 17.35 183.05 17.97C183.47 18.59 184.07 19.07 184.84 19.42C185.62 19.7701 186.52 19.94 187.55 19.94L187.53 19.96ZM185.54 14.26C185.98 13.84 186.82 13.63 188.08 13.63H191.95V15.57C191.64 16.37 191.13 16.98 190.42 17.4C189.71 17.82 188.89 18.03 187.95 18.03C187.01 18.03 186.24 17.83 185.7 17.42C185.16 17.01 184.89 16.47 184.89 15.79C184.89 15.2 185.11 14.69 185.54 14.27V14.26Z" fill="black"/>
<path d="M201.25 19.0699C202.3 19.6599 203.5 19.9599 204.85 19.9599C206.05 19.9599 207.13 19.6899 208.07 19.1599C208.75 18.7799 209.32 18.2499 209.8 17.5999V19.7999H212.21V0.389893H209.7V8.04989C209.23 7.43989 208.68 6.94989 208.03 6.58989C207.09 6.06989 206.03 5.80989 204.86 5.80989C203.52 5.80989 202.32 6.10989 201.26 6.69989C200.2 7.28989 199.37 8.11989 198.76 9.1699C198.15 10.2299 197.84 11.4599 197.84 12.8699C197.84 14.2799 198.14 15.5199 198.76 16.5799C199.37 17.6399 200.2 18.4699 201.26 19.0699H201.25ZM201 10.2899C201.42 9.56989 201.98 8.99989 202.67 8.59989C203.37 8.19989 204.16 7.99989 205.05 7.99989C205.94 7.99989 206.71 8.19989 207.42 8.59989C208.13 8.99989 208.68 9.55989 209.09 10.2899C209.5 11.0099 209.7 11.8699 209.7 12.8699C209.7 13.8699 209.49 14.7099 209.09 15.4499C208.68 16.1899 208.12 16.7599 207.42 17.1599C206.71 17.5599 205.92 17.7599 205.05 17.7599C204.18 17.7599 203.37 17.5599 202.67 17.1599C201.97 16.7599 201.41 16.1899 201 15.4499C200.58 14.7099 200.37 13.8499 200.37 12.8699C200.37 11.8899 200.58 11.0199 201 10.2899Z" fill="black"/>
<path d="M226.6 6.70982C225.51 6.10982 224.28 5.80981 222.9 5.80981C221.52 5.80981 220.27 6.11981 219.19 6.72981C218.11 7.33981 217.25 8.16981 216.63 9.22981C216.01 10.2898 215.69 11.4998 215.69 12.8798C215.69 14.2598 216 15.4598 216.63 16.5298C217.26 17.5998 218.12 18.4398 219.21 19.0498C220.3 19.6598 221.53 19.9698 222.91 19.9698C224.29 19.9698 225.52 19.6698 226.61 19.0498C227.7 18.4398 228.55 17.5998 229.17 16.5398C229.79 15.4798 230.1 14.2598 230.1 12.8798C230.1 11.4998 229.79 10.2798 229.17 9.21982C228.55 8.15982 227.7 7.31982 226.61 6.71982L226.6 6.70982ZM226.95 15.4498C226.55 16.1898 225.99 16.7598 225.29 17.1598C224.58 17.5598 223.79 17.7598 222.9 17.7598C222.01 17.7598 221.22 17.5598 220.52 17.1598C219.82 16.7598 219.26 16.1898 218.85 15.4498C218.43 14.7098 218.22 13.8498 218.22 12.8698C218.22 11.8898 218.43 11.0198 218.85 10.2898C219.27 9.56982 219.83 8.99982 220.52 8.59982C221.22 8.19982 222.01 7.99981 222.9 7.99981C223.79 7.99981 224.59 8.19982 225.29 8.59982C225.99 8.99982 226.55 9.55982 226.95 10.2898C227.35 11.0098 227.55 11.8698 227.55 12.8698C227.55 13.8698 227.35 14.7098 226.95 15.4498Z" fill="black"/>
<path d="M0 75.5999H10.34V59.4199H30.84V51.1699H10.34V39.4299H33.57V31.1799H0V75.5999Z" fill="black"/>
<path d="M70.05 61.2899C72.93 60.0399 75.15 58.2199 76.71 55.8299C78.27 53.4399 79.06 50.5699 79.06 47.2299C79.06 43.8899 78.28 41.0699 76.71 38.6599C75.14 36.2499 72.92 34.3999 70.05 33.1099C67.17 31.8199 63.75 31.1699 59.77 31.1699H40.54V75.5899H50.88V63.1499H59.76C59.91 63.1499 60.06 63.1499 60.21 63.1499L68.83 75.5999H79.87L69.97 61.3199C69.97 61.3199 70.01 61.2999 70.03 61.2999L70.05 61.2899ZM66.31 41.5599C67.92 42.8899 68.72 44.7899 68.72 47.2399C68.72 49.6899 67.92 51.5999 66.31 52.9499C64.7 54.2999 62.33 54.9799 59.2 54.9799H50.89V39.5599H59.2C62.33 39.5599 64.7 40.2299 66.31 41.5599Z" fill="black"/>
<path d="M101.08 31.1799L81.34 75.5999H91.87L95.83 66.0799H116.41L120.37 75.5999H131.16L111.23 31.1799H101.08ZM99.08 58.2799L106.12 41.3499L113.16 58.2799H99.08Z" fill="black"/>
<path d="M166.38 58.1299L144.3 31.1799H135.79V75.5999H145.95V48.6599L168.03 75.5999H176.53V31.1799H166.38V58.1299Z" fill="black"/>
<path d="M198.68 43.1099C199.95 41.8399 201.45 40.8599 203.19 40.1599C204.92 39.4599 206.83 39.1099 208.9 39.1099C211.1 39.1099 213.14 39.5499 215.02 40.4399C216.9 41.3299 218.58 42.6399 220.06 44.3699L226.72 38.2799C224.6 35.6999 221.98 33.7399 218.85 32.4099C215.72 31.0799 212.23 30.4099 208.38 30.4099C204.95 30.4099 201.77 30.9699 198.83 32.0899C195.89 33.2099 193.33 34.8099 191.15 36.8799C188.97 38.9499 187.28 41.3899 186.07 44.1799C184.86 46.9699 184.26 50.0399 184.26 53.3799C184.26 56.7199 184.86 59.7899 186.07 62.5799C187.28 65.3699 188.96 67.8099 191.11 69.8799C193.27 71.9499 195.82 73.5499 198.76 74.6699C201.7 75.7899 204.88 76.3499 208.31 76.3499C212.2 76.3499 215.71 75.6699 218.84 74.3199C221.97 72.9699 224.59 70.9999 226.71 68.4199L220.05 62.3299C218.57 64.0599 216.89 65.3899 215.01 66.2999C213.13 67.2099 211.09 67.6599 208.89 67.6599C206.82 67.6599 204.91 67.3099 203.18 66.6099C201.44 65.9099 199.94 64.9299 198.67 63.6599C197.4 62.3899 196.42 60.8899 195.72 59.1499C195.02 57.4199 194.67 55.4899 194.67 53.3799C194.67 51.2699 195.02 49.3399 195.72 47.6099C196.42 45.8799 197.4 44.3699 198.67 43.0999L198.68 43.1099Z" fill="black"/>
<path d="M243.92 31.1799H233.58V75.5999H243.92V31.1799Z" fill="black"/>
<path d="M287.58 75.5999H298.37L278.44 31.1799H268.29L248.55 75.5999H259.08L263.04 66.0799H283.62L287.58 75.5999ZM266.29 58.2799L273.33 41.3499L280.37 58.2799H266.29Z" fill="black"/>
</svg>
